<?xml version="1.0" encoding="utf-8"?>
<!-- Generator: Adobe Illustrator 21.1.0, SVG Export Plug-In . SVG Version: 6.00 Build 0)  -->
<svg version="1.1" id="Layer_1" xmlns="http://www.w3.org/2000/svg" xmlns:xlink="http://www.w3.org/1999/xlink" x="0px" y="0px"
	 width="32px" height="32px" viewBox="0 0 32 32" style="enable-background:new 0 0 32 32;" xml:space="preserve">
<style type="text/css">
	.st0{fill:#FFFFFF;}
</style>
<path class="st0" d="M16.1,0.3C7.4,0.3,0.4,7.3,0.4,16s7,15.7,15.7,15.7c8.7,0,15.7-7,15.7-15.7S24.8,0.3,16.1,0.3z M16.1,28.7
	C9.1,28.7,3.4,23,3.4,16S9.1,3.3,16.1,3.3c7,0,12.7,5.7,12.7,12.7S23.1,28.7,16.1,28.7z"/>
<path class="st0" d="M30.1,0.1L14.8,16.7C10.9,14.8,7,12.9,3,11c-0.2,0.8-0.4,1.6-0.6,2.5c4.6,4.6,9.2,9.2,13.8,13.9
	c5.2-8.6,10.4-17.2,15.6-25.9L30.1,0.1z"/>
</svg>
