<?xml version="1.0" encoding="utf-8"?>
<!-- Generator: Adobe Illustrator 21.1.0, SVG Export Plug-In . SVG Version: 6.00 Build 0)  -->
<svg version="1.1" id="Layer_1" xmlns="http://www.w3.org/2000/svg" xmlns:xlink="http://www.w3.org/1999/xlink" x="0px" y="0px"
	 viewBox="0 0 64 64" style="enable-background:new 0 0 64 64;" xml:space="preserve">
<style type="text/css">
	.st0{fill:#FFFFFF;}
</style>
<g>
	<polygon class="st0" points="22.1,38.4 32.4,48 32.4,16 22.1,25.6 	"/>
	<polygon class="st0" points="14.1,38 17.5,38 20.1,38 20.1,26 14.1,26 	"/>
	<path class="st0" d="M40.6,17l-0.9,1.8c4.9,2.4,8.3,7.4,8.2,13.2c0.1,6-3.4,11-8.5,13.4l0.8,1.7c5.8-2.6,9.7-8.3,9.7-15.1
		C49.9,25.4,46.1,19.7,40.6,17z"/>
	<path class="st0" d="M45.1,31.9c0-5.5-3.3-10.2-8.1-12.2l-0.8,1.8c4.1,1.7,6.9,5.8,6.9,10.4c0,4.9-3,9-7.3,10.6l0.8,1.8
		C41.6,42.4,45.1,37.6,45.1,31.9z"/>
</g>
<path class="st0" d="M32,0C14.3,0,0,14.3,0,32s14.3,32,32,32s32-14.3,32-32S49.7,0,32,0z M32,6c8.8,0,16.6,4.4,21.3,11
	C38.1,25.2,22.9,33.3,7.7,41.4C6.6,38.5,6,35.3,6,32C6,17.6,17.6,6,32,6z M32,58c-8.7,0-16.3-4.2-21-10.7C26,38.9,41,30.5,56.1,22.1
	c1.3,3,1.9,6.4,1.9,9.9C58,46.4,46.4,58,32,58z"/>
</svg>
