<?xml version="1.0" encoding="utf-8"?>
<!-- Generator: Adobe Illustrator 21.1.0, SVG Export Plug-In . SVG Version: 6.00 Build 0)  -->
<svg version="1.1" id="Layer_1" xmlns="http://www.w3.org/2000/svg" xmlns:xlink="http://www.w3.org/1999/xlink" x="0px" y="0px"
	 width="32px" height="32px" viewBox="0 0 32 32" style="enable-background:new 0 0 32 32;" xml:space="preserve">
<style type="text/css">
	.st0{fill:#FFFFFF;}
</style>
<g>
	<path class="st0" d="M6.8,15.8c-0.1,5.1,4,9.3,9.1,9.5c5.1,0.1,9.3-4,9.5-9.1c0.1-5.1-4-9.3-9.1-9.5C11.1,6.6,6.9,10.7,6.8,15.8z
		 M20.9,13c1.6,2.7,0.7,6.2-2,7.7c-2.7,1.6-6.2,0.7-7.8-2.1c-1.5-2.6-0.6-6,1.9-7.6C15.8,9.4,19.3,10.3,20.9,13z"/>
	<path class="st0" d="M30.9,17.5c0.1-1.1,0.1-2.2,0-3.2l-2.5-0.6c-0.1-0.7-0.3-1.3-0.6-2l1.8-1.8c-0.2-0.5-0.5-1-0.8-1.4
		C28.6,7.9,28.3,7.5,28,7l-2.5,0.7c-0.5-0.5-0.9-1-1.5-1.4l0.7-2.5c-0.9-0.6-1.8-1.2-2.8-1.6l-1.8,1.9c-0.6-0.2-1.3-0.4-2-0.5
		l-0.7-2.5c-1.1-0.1-2.2-0.1-3.2,0l-0.6,2.5c-0.7,0.1-1.3,0.3-2,0.6L9.9,2.4c-0.5,0.2-1,0.5-1.4,0.7C8,3.4,7.5,3.7,7.1,4l0.7,2.5
		C7.3,7,6.8,7.5,6.4,8L3.9,7.3c-0.6,0.9-1.2,1.8-1.6,2.8l1.9,1.8c-0.2,0.6-0.4,1.3-0.5,2l-2.5,0.7c-0.1,1.1-0.1,2.2,0,3.2l2.5,0.6
		c0.1,0.7,0.3,1.3,0.5,2l-1.8,1.8c0.2,0.5,0.5,1,0.7,1.4c0.3,0.5,0.6,0.9,0.9,1.4l2.5-0.7c0.5,0.5,0.9,1,1.5,1.4l-0.7,2.5
		c0.9,0.6,1.8,1.2,2.8,1.6l1.8-1.9c0.6,0.2,1.3,0.4,2,0.5l0.7,2.5c1.1,0.1,2.2,0.1,3.2,0l0.6-2.5c0.7-0.1,1.3-0.3,2-0.6l1.8,1.8
		c0.5-0.2,1-0.5,1.4-0.7c0.5-0.3,0.9-0.6,1.4-0.9l-0.7-2.5c0.5-0.5,1-0.9,1.4-1.5l2.5,0.7c0.6-0.9,1.2-1.8,1.6-2.8l-1.9-1.8
		c0.2-0.6,0.4-1.3,0.5-2L30.9,17.5z M15.8,25.7c-5.3-0.1-9.6-4.5-9.5-9.9c0.1-5.3,4.5-9.6,9.9-9.5c5.3,0.1,9.6,4.5,9.5,9.9
		C25.6,21.5,21.2,25.8,15.8,25.7z"/>
</g>
</svg>
